<svg xmlns="http://www.w3.org/2000/svg" viewBox="0 0 64 64">
  <defs>
    <linearGradient id="sky" x1="0" y1="0" x2="0" y2="1">
      <stop offset="0%" stop-color="#3b82f6"/>
      <stop offset="100%" stop-color="#1e40af"/>
    </linearGradient>
  </defs>
  <rect width="64" height="64" rx="12" fill="url(#sky)"/>
  <!-- Sun -->
  <circle cx="38" cy="22" r="10" fill="#fbbf24"/>
  <!-- Sun rays -->
  <g stroke="#fbbf24" stroke-width="2" stroke-linecap="round">
    <line x1="38" y1="7" x2="38" y2="10"/>
    <line x1="38" y1="34" x2="38" y2="37"/>
    <line x1="23" y1="22" x2="26" y2="22"/>
    <line x1="50" y1="22" x2="53" y2="22"/>
    <line x1="27.4" y1="11.4" x2="29.5" y2="13.5"/>
    <line x1="46.5" y1="30.5" x2="48.6" y2="32.6"/>
    <line x1="48.6" y1="11.4" x2="46.5" y2="13.5"/>
    <line x1="29.5" y1="30.5" x2="27.4" y2="32.6"/>
  </g>
  <!-- Cloud -->
  <g fill="#e2e8f0">
    <ellipse cx="24" cy="40" rx="14" ry="9"/>
    <ellipse cx="36" cy="38" rx="10" ry="8"/>
    <ellipse cx="16" cy="42" rx="8" ry="6"/>
  </g>
  <!-- Temperature bar -->
  <rect x="8" y="20" width="4" height="28" rx="2" fill="rgba(255,255,255,0.3)"/>
  <rect x="8" y="32" width="4" height="16" rx="2" fill="#ef4444"/>
  <circle cx="10" cy="52" r="4" fill="#ef4444"/>
</svg>
